<?xml version="1.0" encoding="utf-8"?>
<!-- Generator: Adobe Illustrator 24.3.0, SVG Export Plug-In . SVG Version: 6.00 Build 0)  -->
<svg version="1.1" id="Layer_1" xmlns="http://www.w3.org/2000/svg" xmlns:xlink="http://www.w3.org/1999/xlink" x="0px" y="0px"
	 viewBox="0 0 61 76" style="enable-background:new 0 0 61 76;" xml:space="preserve">
<style type="text/css">
	.st0{fill:#BAB9BA;}
</style>
<g>
	<path id="Path_30" class="st0" d="M41.3,23.9h13.3c0.4,0,0.7-0.3,0.7-0.7v0l0,0c0-1.3-0.6-2.5-1.6-3.3l-11.1-9.3
		c-0.8-0.7-1.9-1.1-3-1.1l0,0c-0.6,0-1.1,0.5-1.1,1.1c0,0,0,0,0,0v10.6C38.5,22.7,39.8,23.9,41.3,23.9
		C41.3,23.9,41.3,23.9,41.3,23.9z"/>
	<path id="Path_31" class="st0" d="M33.7,21.1V9.5H14.6c-2.6,0-4.7,2.1-4.7,4.7v49c0,2.6,2.1,4.7,4.7,4.7h35c2.6,0,4.7-2.1,4.7-4.7
		V27.7h-14C36.7,27.7,33.7,24.8,33.7,21.1z"/>
</g>
</svg>
