<?xml version="1.0" encoding="utf-8"?>
<!-- Generator: Adobe Illustrator 24.3.0, SVG Export Plug-In . SVG Version: 6.00 Build 0)  -->
<svg version="1.1" id="Layer_1" xmlns="http://www.w3.org/2000/svg" xmlns:xlink="http://www.w3.org/1999/xlink" x="0px" y="0px"
	 viewBox="0 0 74 70" style="enable-background:new 0 0 74 70;" xml:space="preserve">
<style type="text/css">
	.st0{fill:#BAB9BA;}
</style>
<path id="Icon_material-slow-motion-video" class="st0" d="M41.8,28.9l-9-6.7v26.4l9-6.7l8.6-6.5L41.8,28.9z M41.8,28.9l-9-6.7v26.4
	l9-6.7l8.6-6.5L41.8,28.9z M41.8,28.9l-9-6.7v26.4l9-6.7l8.6-6.5L41.8,28.9z M35.8,12.1V6.2C30,6.8,24.6,9,20.1,12.7l4.2,4.2
	C27.6,14.3,31.6,12.7,35.8,12.1z M20.2,21L16,16.9c-3.6,4.5-5.9,9.9-6.5,15.6h5.9C16,28.3,17.6,24.4,20.2,21z M15.4,38.4H9.5
	c0.6,5.7,2.8,11.2,6.5,15.6l4.2-4.2C17.6,46.5,15.9,42.5,15.4,38.4z M20.1,58.1c4.5,3.6,9.9,5.9,15.6,6.5v-5.9
	c-4.2-0.5-8.1-2.2-11.4-4.8L20.1,58.1L20.1,58.1z M68,35.4c0,15-11.3,27.6-26.3,29.2v-5.9C54.6,57,63.6,45.2,61.9,32.3
	c-1.4-10.5-9.7-18.8-20.2-20.2V6.2C56.7,7.8,68,20.4,68,35.4L68,35.4z"/>
</svg>
