<?xml version="1.0" encoding="utf-8"?>
<!-- Generator: Adobe Illustrator 24.3.0, SVG Export Plug-In . SVG Version: 6.00 Build 0)  -->
<svg version="1.1" id="Layer_1" xmlns="http://www.w3.org/2000/svg" xmlns:xlink="http://www.w3.org/1999/xlink" x="0px" y="0px"
	 viewBox="0 0 110 94" style="enable-background:new 0 0 110 94;" xml:space="preserve">
<style type="text/css">
	.st0{fill:#BAB9BA;}
</style>
<g>
	<path id="Path_32" class="st0" d="M58.6,35.7c0,7.9-6.4,14.3-14.3,14.3S30,43.6,30,35.7s6.4-14.3,14.3-14.3S58.6,27.8,58.6,35.7
		L58.6,35.7z"/>
	<path id="Path_33" class="st0" d="M44.3,57.2c-9.5,0-28.6,4.8-28.6,14.3v7.2h57.3v-7.2C72.9,61.9,53.8,57.2,44.3,57.2z M72,22.7
		l-6,6c3,4.1,3,9.8,0,13.9l6,6C79.3,41.4,79.3,30.5,72,22.7z M83.9,10.6L78,16.5c9.9,10.8,9.9,27.1,0,38.4l5.8,5.8
		C97.8,46.8,97.9,25.1,83.9,10.6z"/>
</g>
</svg>
