<?xml version="1.0" encoding="utf-8"?>
<!-- Generator: Adobe Illustrator 24.3.0, SVG Export Plug-In . SVG Version: 6.00 Build 0)  -->
<svg version="1.1" id="Layer_1" xmlns="http://www.w3.org/2000/svg" xmlns:xlink="http://www.w3.org/1999/xlink" x="0px" y="0px"
	 viewBox="0 0 173 122" style="enable-background:new 0 0 173 122;" xml:space="preserve">
<style type="text/css">
	.st0{enable-background:new    ;}
	.st1{fill:#1D1D1D;}
	.st2{fill:none;}
	.st3{fill:none;stroke:#1D1D1D;}
	.st4{fill:none;stroke:#1D1D1D;stroke-linecap:round;}
</style>
<g id="Group_5" transform="translate(-30 -38.5)">
	<g class="st0">
		<path class="st1" d="M43.5,147.9c-1.3,0-2.8-0.4-3.8-1.9c-0.7-1.1-0.9-2.7-0.9-5.2c0-2.4,0.2-4.1,0.9-5.2c1-1.4,2.5-1.9,3.8-1.9
			c1.4,0,2.5,0.3,3.4,1c0.3,0.2,0.5,0.5,0.5,0.7c0,0.3-0.4,0.8-0.8,0.8c-0.2,0-0.3-0.1-0.5-0.2c-0.9-0.7-1.5-0.8-2.6-0.8
			c-1,0-2.1,0.2-2.7,1.3c-0.5,1-0.6,2.4-0.6,4.2c0,1.8,0,3.3,0.6,4.2c0.6,1.1,1.6,1.3,2.6,1.3c0.9,0,2-0.2,3-1
			c0.2-0.2,0.3-0.3,0.5-0.3c0.4,0,0.8,0.4,0.8,0.8c0,0.2-0.1,0.3-0.3,0.5C47.1,146.9,45.9,147.9,43.5,147.9z"/>
		<path class="st1" d="M51.5,138.7c0,0.1,0,0.1,0.1,0.1c0,0,0.1-0.1,0.2-0.1c0.7-0.6,1.6-0.8,2.5-0.8c2.7,0,3.5,1.7,3.5,4.1v5.2
			c0,0.5-0.4,0.7-0.7,0.7c-0.4,0-0.8-0.2-0.8-0.7v-4.5c0-1.9-0.1-3.4-2.4-3.4c-1.7,0-2.4,0.9-2.4,2.7v5.2c0,0.5-0.4,0.7-0.7,0.7
			c-0.4,0-0.7-0.2-0.7-0.7v-12.8c0-0.5,0.4-0.7,0.7-0.7c0.4,0,0.7,0.2,0.7,0.7V138.7z"/>
		<path class="st1" d="M62,143.5c-0.1,0-0.1,0.1-0.1,0.1c0.1,1.9,0.4,2.9,2.7,2.9c0.6,0,1.4-0.2,2-0.5c0.6-0.3,0.7-0.4,0.8-0.4
			c0.5,0,0.7,0.4,0.7,0.8c0,0.2-0.1,0.4-0.3,0.5c-0.9,0.6-2,1-3.3,1c-3.4,0-4.1-1.9-4.1-5c0-2.8,0.6-5,4-5c3.4,0,3.9,2.5,3.9,4.3
			c0,0.5-0.1,1.3-1,1.3H62z M64.3,139.3c-1.8,0-2.4,1.1-2.4,2.8c0,0.1,0,0.2,0.1,0.2h4.6c0.1,0,0.1,0,0.1-0.1
			C66.7,140.5,66.1,139.3,64.3,139.3z"/>
		<path class="st1" d="M76.3,146.8c-0.1,0-0.1,0.1-0.2,0.1c-0.7,0.5-1.5,1-3,1c-2.3,0-3-1.4-3-2.7c0-2.4,2-3,4-3H76
			c0.1,0,0.2-0.1,0.2-0.2v-0.6c0-1.4-0.7-2-2.2-2c-1.2,0-1.7,0.3-2.3,0.8c-0.1,0.1-0.2,0.1-0.3,0.1c-0.4,0-0.7-0.4-0.7-0.8
			c0-0.2,0.1-0.4,0.3-0.6c0.9-0.7,2-0.9,3.1-0.9c3.1,0,3.7,1.6,3.7,4v4.1c0,0.4,0.1,0.5,0.4,0.5h0.2c0.3,0,0.5,0.3,0.5,0.7
			c0,0.5-0.2,0.7-1,0.7c-0.8,0-1.2-0.3-1.4-1C76.4,146.8,76.4,146.8,76.3,146.8z M76.3,143.7c0-0.1-0.1-0.2-0.2-0.2h-1.9
			c-1.4,0-2.6,0.2-2.6,1.5c0,1,0.7,1.6,1.8,1.6c2,0,2.9-1.3,2.9-2.5V143.7z"/>
		<path class="st1" d="M83.8,147.9c-1.9,0-2.7-1.1-2.7-2.9v-5.5c0-0.1-0.1-0.1-0.2-0.1h-1c-0.5,0-0.6-0.3-0.6-0.7s0.2-0.7,0.6-0.7h1
			c0.1,0,0.2,0,0.2-0.2v-2.3c0-0.5,0.4-0.7,0.7-0.7c0.4,0,0.7,0.2,0.7,0.7v2.3c0,0.1,0,0.2,0.2,0.2H84c0.5,0,0.6,0.3,0.6,0.7
			s-0.2,0.7-0.6,0.7h-1.3c-0.1,0-0.2,0-0.2,0.2v5.6c0,0.8,0.5,1.3,1.4,1.3c0.4,0,0.7,0.3,0.7,0.7C84.7,147.5,84.5,147.9,83.8,147.9z
			"/>
		<path class="st1" d="M87.4,135.8c-0.6,0-1-0.4-1-1s0.4-1,1-1c0.6,0,1,0.4,1,1S88,135.8,87.4,135.8z M88.2,147.3
			c0,0.5-0.4,0.7-0.7,0.7c-0.4,0-0.7-0.2-0.7-0.7v-8.6c0-0.5,0.4-0.7,0.7-0.7c0.4,0,0.7,0.2,0.7,0.7V147.3z"/>
		<path class="st1" d="M92.7,142v5.3c0,0.5-0.4,0.7-0.7,0.7c-0.4,0-0.7-0.2-0.7-0.7v-8.6c0-0.5,0.4-0.7,0.7-0.7
			c0.4,0,0.8,0.2,0.8,0.6v0.2c0,0.1,0,0.1,0.1,0.1c0,0,0.1-0.1,0.2-0.1c0.7-0.6,1.6-0.8,2.5-0.8c2.7,0,3.5,1.7,3.5,4.1v5.2
			c0,0.5-0.4,0.7-0.7,0.7c-0.4,0-0.8-0.2-0.8-0.7v-4.5c0-1.9-0.1-3.4-2.4-3.4C93.4,139.4,92.7,140.3,92.7,142z"/>
		<path class="st1" d="M101.5,142.9c0-2.8,0.7-5,3.7-5c0.8,0,1.6,0.2,2.4,0.8c0,0,0.1,0.1,0.2,0.1c0.1,0,0.1,0,0.1-0.1v-0.2
			c0-0.5,0.3-0.7,0.8-0.7c0.4,0,0.7,0.2,0.7,0.7v9.9c0,2.6-2.1,3.7-4.3,3.7c-1.3,0-2.1-0.3-2.6-0.6c-0.2-0.1-0.3-0.3-0.3-0.5
			c0-0.4,0.3-0.8,0.7-0.8c0.1,0,0.2,0,0.4,0.1c0.5,0.2,1,0.4,1.9,0.4c1.5,0,2.8-0.8,2.8-2.3v-1.5c0-0.1,0-0.1-0.1-0.1
			c-0.1,0-0.1,0.1-0.2,0.1c-0.7,0.7-1.6,0.8-2.4,0.8C102.3,147.9,101.5,145.8,101.5,142.9z M103.1,142.9c0,2.1,0.2,3.6,2.4,3.6
			c2.2,0,2.4-1.5,2.4-3.6c0-1.8,0-3.6-2.4-3.6C103.2,139.4,103.1,140.8,103.1,142.9z"/>
		<path class="st1" d="M122,133.9c1.9,0,3.2,0.5,4,1.8c0.8,1.2,0.9,3,0.9,5.1c0,2.1-0.1,3.9-0.9,5.1c-0.8,1.3-2.1,1.8-4,1.8h-4.1
			c-0.4,0-0.7-0.2-0.7-0.6v-12.6c0-0.5,0.4-0.6,0.7-0.6H122z M122,146.4c1.4,0,2.3-0.3,2.8-1.3c0.5-1.1,0.6-2.5,0.6-4.2
			c0-1.7,0-3.1-0.6-4.2c-0.5-1-1.3-1.3-2.8-1.3h-3c-0.1,0-0.2,0-0.2,0.2v10.6c0,0.1,0,0.2,0.2,0.2H122z"/>
		<path class="st1" d="M130.9,143.5c-0.1,0-0.1,0.1-0.1,0.1c0.1,1.9,0.4,2.9,2.7,2.9c0.6,0,1.4-0.2,2-0.5c0.6-0.3,0.7-0.4,0.8-0.4
			c0.5,0,0.7,0.4,0.7,0.8c0,0.2-0.1,0.4-0.3,0.5c-0.9,0.6-2,1-3.3,1c-3.4,0-4.1-1.9-4.1-5c0-2.8,0.6-5,4-5c3.4,0,3.9,2.5,3.9,4.3
			c0,0.5-0.1,1.3-1,1.3H130.9z M133.2,139.3c-1.8,0-2.4,1.1-2.4,2.8c0,0.1,0,0.2,0.1,0.2h4.6c0.1,0,0.1,0,0.1-0.1
			C135.6,140.5,135,139.3,133.2,139.3z"/>
		<path class="st1" d="M143.1,147.9c-1.9,0-2.7-1.1-2.7-2.9v-5.5c0-0.1-0.1-0.1-0.2-0.1h-1c-0.5,0-0.6-0.3-0.6-0.7s0.2-0.7,0.6-0.7
			h1c0.1,0,0.2,0,0.2-0.2v-2.3c0-0.5,0.4-0.7,0.7-0.7c0.4,0,0.7,0.2,0.7,0.7v2.3c0,0.1,0,0.2,0.2,0.2h1.3c0.5,0,0.6,0.3,0.6,0.7
			s-0.2,0.7-0.6,0.7H142c-0.1,0-0.2,0-0.2,0.2v5.6c0,0.8,0.5,1.3,1.4,1.3c0.4,0,0.7,0.3,0.7,0.7
			C143.9,147.5,143.7,147.9,143.1,147.9z"/>
		<path class="st1" d="M147,143.5c-0.1,0-0.1,0.1-0.1,0.1c0.1,1.9,0.4,2.9,2.7,2.9c0.6,0,1.4-0.2,2-0.5c0.6-0.3,0.7-0.4,0.8-0.4
			c0.5,0,0.7,0.4,0.7,0.8c0,0.2-0.1,0.4-0.3,0.5c-0.9,0.6-2,1-3.3,1c-3.4,0-4.1-1.9-4.1-5c0-2.8,0.6-5,4-5c3.4,0,3.9,2.5,3.9,4.3
			c0,0.5-0.1,1.3-1,1.3H147z M149.3,139.3c-1.8,0-2.4,1.1-2.4,2.8c0,0.1,0,0.2,0.1,0.2h4.6c0.1,0,0.1,0,0.1-0.1
			C151.8,140.5,151.2,139.3,149.3,139.3z"/>
		<path class="st1" d="M162.5,139.3c0,0.4-0.4,0.8-0.8,0.8c-0.2,0-0.3-0.1-0.5-0.2c-0.6-0.4-1.2-0.5-1.7-0.5c-2.3,0-2.5,1.5-2.5,3.6
			s0.2,3.6,2.5,3.6c0.5,0,1.3-0.1,1.8-0.4c0.3-0.1,0.5-0.3,0.6-0.3c0.4,0,0.7,0.4,0.7,0.8c0,0.1,0,0.4-0.3,0.5
			c-0.9,0.5-1.7,0.8-2.9,0.8c-3.4,0-4-2.1-4-5c0-2.8,0.6-5,3.9-5c1,0,2.1,0.1,2.9,0.9C162.5,139,162.5,139.2,162.5,139.3z"/>
		<path class="st1" d="M168.3,147.9c-1.9,0-2.7-1.1-2.7-2.9v-5.5c0-0.1-0.1-0.1-0.2-0.1h-1c-0.5,0-0.6-0.3-0.6-0.7s0.2-0.7,0.6-0.7
			h1c0.1,0,0.2,0,0.2-0.2v-2.3c0-0.5,0.4-0.7,0.7-0.7c0.4,0,0.7,0.2,0.7,0.7v2.3c0,0.1,0,0.2,0.2,0.2h1.3c0.5,0,0.6,0.3,0.6,0.7
			s-0.2,0.7-0.6,0.7h-1.3c-0.1,0-0.2,0-0.2,0.2v5.6c0,0.8,0.5,1.3,1.4,1.3c0.4,0,0.7,0.3,0.7,0.7
			C169.1,147.5,168.9,147.9,168.3,147.9z"/>
		<path class="st1" d="M171.8,135.8c-0.6,0-1-0.4-1-1s0.4-1,1-1c0.6,0,1,0.4,1,1S172.4,135.8,171.8,135.8z M172.6,147.3
			c0,0.5-0.4,0.7-0.7,0.7c-0.4,0-0.7-0.2-0.7-0.7v-8.6c0-0.5,0.4-0.7,0.7-0.7c0.4,0,0.7,0.2,0.7,0.7V147.3z"/>
		<path class="st1" d="M179.3,138c3.4,0,4,2.1,4,5c0,2.8-0.6,5-4,5s-4-2.1-4-5C175.3,140.1,175.9,138,179.3,138z M179.3,146.5
			c2.3,0,2.5-1.5,2.5-3.6s-0.2-3.6-2.5-3.6s-2.5,1.5-2.5,3.6S177,146.5,179.3,146.5z"/>
		<path class="st1" d="M187.4,142v5.3c0,0.5-0.4,0.7-0.7,0.7c-0.4,0-0.7-0.2-0.7-0.7v-8.6c0-0.5,0.4-0.7,0.7-0.7
			c0.4,0,0.8,0.2,0.8,0.6v0.2c0,0.1,0,0.1,0.1,0.1c0,0,0.1-0.1,0.2-0.1c0.7-0.6,1.6-0.8,2.5-0.8c2.7,0,3.5,1.7,3.5,4.1v5.2
			c0,0.5-0.4,0.7-0.7,0.7c-0.4,0-0.8-0.2-0.8-0.7v-4.5c0-1.9-0.1-3.4-2.4-3.4C188.1,139.4,187.4,140.3,187.4,142z"/>
	</g>
	<g id="Group_4" transform="translate(64.479 39)">
		<g id="Ellipse_1" transform="translate(8.62 7.764)">
			<circle class="st2" cx="42.1" cy="40.3" r="34.5"/>
			<circle class="st3" cx="42.1" cy="40.3" r="34"/>
		</g>
		<line id="Line_1" class="st4" x1="51.5" y1="5.8" x2="51.5" y2="14.4"/>
		<line id="Line_2" class="st4" x1="51.5" y1="81.5" x2="51.5" y2="90.1"/>
		<line id="Line_3" class="st4" x1="93.6" y1="48" x2="85" y2="48"/>
		<line id="Line_4" class="st4" x1="16.2" y1="48" x2="7.6" y2="48"/>
	</g>
	<g class="st0">
		<path class="st1" d="M85.6,91.4c0-10.1,9.9-25.9,19.6-25.9c3.3,0,4.9,2.4,4.9,5.5c0,3.6-2.1,7.8-5.4,9.1c-0.1,0.1-0.2,0.1-0.4,0.1
			c-0.6,0-1.1-0.5-1.1-1.1c0-0.4,0.2-0.7,0.6-0.9c2.5-1,4.1-4.4,4.1-7.2c0-2.2-1.1-3.4-2.9-3.4c-8.5,0-17.5,14.7-17.5,23.8
			c0,5,2.2,7.9,7.5,7.9c5.9,0,9.8-4.1,13.4-8.2c0.2-0.2,0.5-0.3,0.7-0.3c0.6,0,1.1,0.5,1.1,1c0,0.2-0.2,0.6-0.3,0.7
			c-3.3,3.8-8.3,8.8-14.8,8.8C88.3,101.3,85.6,97.1,85.6,91.4z"/>
		<path class="st1" d="M106.5,98.5c0-1.7,1.5-2.9,3.1-2.9c1.1,0,2.4,0.4,3.9,1l0.3,0.2c1.7-2.6,3.3-7.1,5-11.6l0.4-1.1
			c2.4-6.5,5.1-13.4,8.1-16c0.2-0.1,0.4-0.3,0.6-0.3c0.7,0,1,0.6,1,1.1c0,0.2-0.1,0.5-0.3,0.7c-2.5,2.3-5,8.9-7.4,15.2
			c-1.9,4.9-3.6,9.5-5.5,12.6c2,0.7,4.2,1.3,6.8,1.3c10.2,0,16.6-10.2,16.6-18.7c0-7.9-5.5-12.3-12.7-12.3c-2.1,0-4.8,0.4-6.8,1.2
			c-1.8,0.8-3.6,2.1-4.1,4c-0.2,0.4-0.2,0.7-0.2,1.3c0.2,0.2,0.5,0.5,0.5,0.8c0,0.6-0.6,1.1-1.1,1.1c-1.1,0-1.4-1.1-1.4-2.2
			c0-3,2.5-5.7,5.9-7c2.2-0.8,4.8-1.2,7.2-1.2c8.6,0,14.8,5.7,14.8,14.4c0,9.9-7.6,20.8-18.6,20.8c-3.2,0-5.9-0.8-8.1-1.5
			c-1.7,1.9-3.6,2.4-4.6,2.4C107.9,101.6,106.5,100.3,106.5,98.5z M108.5,98.6c0,0.6,0.8,1,1.4,1c1,0,1.9-0.6,2.5-1.2
			c-1.2-0.4-2.2-0.7-2.8-0.7C109,97.7,108.5,98.1,108.5,98.6z"/>
	</g>
</g>
</svg>
